<?xml version="1.0" encoding="UTF-8"?>
<svg id="Layer_1" xmlns="http://www.w3.org/2000/svg" version="1.1" viewBox="0 0 1920 1080">
  <!-- Generator: Adobe Illustrator 29.5.1, SVG Export Plug-In . SVG Version: 2.1.0 Build 141)  -->
  <g>
    <path d="M749.9,493.3c17.5,0,26.3,5.1,27.5,16.2v1.1h21.1v-1.3c-2-23.1-19.5-36.4-48-36.4s-45.2,12.3-45.2,31.4,14.6,26,45.9,26.2c18.2.2,27.1,3.2,27.1,9.3s-14.5,9.3-23.1,9.3c-18.9,0-27.9-5-29.1-16.3v-1.1h-20.9v1.3c1.8,23.2,19.5,36.4,48.7,36.4s44.5-11.6,44.5-31.1-13.7-25.1-47.4-25.6c-18.8-.3-25.8-2.6-25.8-8.4s9.2-11,24.7-11Z"/>
    <path d="M853.2,472.8c-10.4,0-19.5,2.5-27.3,7.5v-5.7h-20.1v129.2h20.1v-42.5c7.8,5.3,17.2,8.1,27.3,8.1s25.7-5,34.3-14c8.4-8.9,13.1-21.4,13.1-35.2,0-28.3-19-47.4-47.4-47.4ZM825.9,520.4c0-16.2,11-27.1,27.3-27.1s27.3,11,27.3,27.3-11.2,28.4-27.3,28.4-27.3-11.6-27.3-28.2v-.4Z"/>
    <path d="M955,472.8c-27.9,0-47.4,20.2-47.4,49.2s19,47.4,47.4,47.4,47.4-19,47.4-47.4-4.7-26.2-13.1-35.2c-8.6-9.1-20.8-14.1-34.3-14.1ZM955,548.9c-16.4,0-27.5-11-27.5-27.3s11.3-28.4,27.5-28.4,27.3,11.7,27.3,28.4-11,27.3-27.3,27.3Z"/>
    <path d="M1052.9,547.8c-14,0-20-5.1-20-17.1v-56.3h20.1v-20.1h-20.1v-15.9h-19.9v92c0,26,11.3,38.1,35.6,38.1s8.9-.3,13-.9l1-.2v-20.3l-1.3.2c-3,.4-5.9.5-8.4.5Z"/>
    <path d="M1093.2,530.7v-92.3h-20.1v92c0,17.1,2.5,26.7,8.3,32,4.1,3.8,10.1,5.6,18.9,5.6s4.5-.1,7.1-.3h1.1v-20.3h-1.2c-11.8,0-14-2.6-14-16.6Z"/>
    <rect x="1121.1" y="474.6" width="19.9" height="93"/>
    <path d="M1131.1,435.7c-7.2,0-12.1,4.8-12.1,12.1s4.8,12.1,12.1,12.1,11.9-5,11.9-12.1-4.9-12.1-11.9-12.1Z"/>
    <path d="M1249.3,457.3c-6.5,0-10.9,4.3-10.9,10.9s4.3,10.9,10.9,10.9,10.9-4.3,10.9-10.9-4.3-10.9-10.9-10.9Z"/>
    <path d="M1202.9,568.2c27.5,0,46.2-18.7,46.2-46.2s-18.7-48-46.2-48-46.2,20.5-46.2,48,5.8,28.3,15.9,36.4c-12.3,8-19.6,21.4-19.6,37.9,0,28.1,20.7,48,49.8,48s46.2-18.7,46.2-46.4h-17.8c0,17-11.4,28.5-28.5,28.5s-32.3-12.9-32.3-30.4,15-27.7,32.3-27.7Z"/>
    <path d="M1313.8,472.8c-9.6,0-18.4,2.5-25.6,7.3v-41.7h-19.9v129.2h19.9v-45.9c0-17.2,10.1-28.4,25.6-28.4s22.8,9.6,25.3,28.5l5.7,45.8h20.1l-5.6-45.7c-4-31.6-20.2-49.1-45.6-49.1Z"/>
    <path d="M1423.7,547.3c-3,.4-5.9.5-8.4.5-14,0-20-5.1-20-17.1v-56.3h20.1v-20.1h-20.1v-15.9h-19.9v92c0,26,11.3,38.1,35.6,38.1s8.9-.3,13-.9l1-.2v-20.3l-1.3.2Z"/>
  </g>
  <path d="M578.4,522.4c0-30.2,20.4-50.6,50.6-50.6,30.2,0,52.6,20.4,52.6,50.6s-22.4,50.6-52.6,50.6c-17.1,0-31-6.3-39.9-17.5-8.7,13.5-23.4,21.4-41.5,21.4-30.8,0-52.6-22.6-52.6-54.6,0-30.2,20.4-50.6,50.8-50.6v19.4c-18.6,0-31.2,12.5-31.2,31.2s14.1,35.3,33.3,35.3,30.4-16.5,30.4-35.3Z"/>
</svg>