<?xml version="1.0" encoding="UTF-8"?>
<svg id="Layer_1" xmlns="http://www.w3.org/2000/svg" version="1.1" viewBox="0 0 1920 1080">
  <!-- Generator: Adobe Illustrator 29.5.1, SVG Export Plug-In . SVG Version: 2.1.0 Build 141)  -->
  <defs>
    <style>
      .st0 {
        fill: #fff;
      }

      .st1 {
        font-family: Obodo, Obodo;
        font-size: 123.4px;
      }
    </style>
  </defs>
  <g>
    <path d="M899.3,355.8v31.6s.2.9.3.9c.8-6,3.1-11.7,6.6-16.6,6.5-9.2,16.9-15,28.2-15.9h78v75.4h-33.4c-.1.6,1,.3,1.4.4,24.7,3.9,39,30.2,28.5,53.2-6,13.1-19.8,22.1-34.3,21.9v-32.1s-.3-.3-.3-.3c-1.8,12.6-10.1,23.7-21.6,28.9-4.2,1.9-8.5,2.9-13,3.4h-78.2v-75.4h33.4c.1-.6-1-.3-1.4-.4-23.6-3.7-38.1-28.3-29.5-50.8,5.4-14.4,19.8-24.5,35.3-24.3ZM899.5,431.2h33.1c.1-.6-1.1-.3-1.5-.4-13.3-2.1-24.9-11.6-29.5-24.3s-1.5-5.1-2-7.7v32.4ZM974.7,463.1v-31.7l-.3-.3h-33.1c-.1.6,1,.3,1.4.4,16.2,2.6,29.5,15.8,31.6,32.2.2,0,.3-.5.3-.6Z"/>
    <path class="st0" d="M899.5,431.2v-32.4c.6,2.6,1.1,5.2,2,7.7,4.6,12.6,16.2,22.2,29.5,24.3s1.7-.2,1.5.4h-33.1Z"/>
    <path class="st0" d="M974.7,463.1c0,0-.2.6-.3.6-2.1-16.4-15.4-29.6-31.6-32.2s-1.5.2-1.4-.4h33.1l.3.3v31.7Z"/>
  </g>
  <text class="st1" transform="translate(602 686.2)"><tspan x="0" y="0">spotlight</tspan></text>
</svg>