<?xml version="1.0" encoding="UTF-8"?>
<svg id="Layer_1" xmlns="http://www.w3.org/2000/svg" version="1.1" viewBox="0 0 1920 1080">
  <!-- Generator: Adobe Illustrator 29.5.1, SVG Export Plug-In . SVG Version: 2.1.0 Build 141)  -->
  <defs>
    <style>
      .st0 {
        font-family: Francy-Regular, Francy;
        font-size: 153.7px;
        letter-spacing: 0em;
      }
    </style>
  </defs>
  <text class="st0" transform="translate(692.8 722.4)"><tspan x="0" y="0">spotlight</tspan></text>
  <g>
    <path d="M1013.9,442.7h-21.3c-1.2-5.8-4.1-10-10.3-10.5-14-1.2-29.8.9-44,0-11.8,1.4-13.1,19.7,2.1,20.9,14.2,1.1,29.8-1,44.1,0,38.2,2.6,40.7,61.7-3.1,64.1-12.3.7-28.7.7-41,0s-13.4-1.9-19.3-6c-8.5-5.9-13.6-15.9-13.6-26.3h21.3c1.2,5.8,4.1,10,10.3,10.5,14,1.2,29.8-.9,44,0,7.3-1.2,10.9-8.1,8.1-15-1.8-4.4-6.3-5.6-10.6-6-14.1-1-29.5,1-43.7,0-38.1-2.6-41.1-62,3.9-64.2,12.2-.6,28-.6,40.2,0,5.8.3,11.5,1.5,16.6,4.3,10,5.5,16.3,16.6,16.3,28Z"/>
    <path d="M1013.9,400.3h-21.4c-.9-6.3-4.1-10-10.7-10.5-14.2-1-29.7.7-44,.1-5.5.8-8.4,5.2-9.1,10.4h-21.4c.2-18.2,13.6-31.2,31.6-32.3s31.5-.9,44.1,0c17.3,1.2,30.7,14.8,30.7,32.3Z"/>
    <path d="M928.8,527.3c.8,5.2,3.5,9.6,9.1,10.4,14.3-.6,29.8,1.2,44,.1s9.7-4.2,10.7-10.5h21.4c0,17.5-13.4,31.1-30.7,32.3-12.6.9-31.5.8-44.1,0-18-1.1-31.3-14.1-31.6-32.3h21.4Z"/>
    <path d="M1056.2,400.3h-21.4c-.4-5.9-4.4-10.1-10.4-10.6-.1,0-.5-.9-.5-1v-20.1c0-.2.5-.5.7-.6,1-.3,7.5,1,9,1.4,12.9,3.7,23.2,17.3,22.6,30.9Z"/>
    <path d="M1056.2,527.3c.6,13.5-9.6,27.2-22.6,30.9s-7.9,1.7-9,1.4-.7-.4-.7-.6v-20.1c0,0,.4-.9.5-1,6-.5,10-4.7,10.4-10.6h21.4Z"/>
    <path d="M886.5,527.3c.4,5.8,4.5,10.2,10.4,10.5.8,7.2.7,14.6,0,21.8-17.4-.2-32.3-14.8-31.8-32.3h21.4Z"/>
    <path d="M865.1,400.3c-.5-17.6,14.5-32.1,31.8-32.3.7,7.2.7,14.6,0,21.8-6,.3-10.1,4.7-10.4,10.5h-21.4Z"/>
    <g>
      <path d="M1034.7,442.2c-.7-5.9-4.4-10.1-10.5-10.5v-21.3c17.1-.8,32.4,14.7,31.8,31.8h-21.3Z"/>
      <path d="M1056,484.6c.5,17.6-14.5,32.1-31.8,32.3-.7-7.2-.7-14.6,0-21.8,6-.3,10.1-4.7,10.4-10.5h21.4Z"/>
      <rect x="1034.6" y="442.3" width="21.3" height="42.3" transform="translate(2090.6 926.8) rotate(180)"/>
    </g>
    <g>
      <path d="M885.1,485c.7,5.9,4.4,10.1,10.5,10.5v21.3c-17.1.8-32.4-14.7-31.8-31.8h21.3Z"/>
      <path d="M863.8,442.7c-.5-17.6,14.5-32.1,31.8-32.3.7,7.2.7,14.6,0,21.8-6,.3-10.1,4.7-10.4,10.5h-21.4Z"/>
      <rect x="863.8" y="442.7" width="21.3" height="42.3"/>
    </g>
  </g>
</svg>