<?xml version="1.0" encoding="UTF-8"?>
<svg id="Layer_1" xmlns="http://www.w3.org/2000/svg" version="1.1" viewBox="0 0 1920 1080">
  <!-- Generator: Adobe Illustrator 29.5.1, SVG Export Plug-In . SVG Version: 2.1.0 Build 141)  -->
  <g>
    <path d="M533.4,502.9v-26.7c0-.9.7-1.7,1.7-1.7,57.4.8,106.9,43,116.6,99.4.8,4.8,2.1,13.5,1.7,18.2s-.6,2.2-2.4,2.4c-8,.7-17.1-.6-25.2,0-.8,0-1.6-.7-1.7-1.4-.5-2.8-.3-6.3-.6-9.1-5.1-41.6-38.3-74.4-79.8-79.5-2.8-.3-6.4-.1-9.1-.6s-.9-.3-1-.8Z"/>
    <path d="M441.9,505.1c.7.7.6,6.3.7,7.6,4.6,42.3,38.4,78.8,81.7,82s8-1.4,8.4,2.7c.7,8-.6,17.1,0,25.2-.2,2.5-5.1,1.8-7.1,1.7-55.1-2.7-102.6-46.2-111.3-100.3-.7-4.6-1.9-13.5-1.3-17.9.1-.9.4-1.4,1.4-1.4,8.4.6,17.6-.7,25.9,0,.6,0,1.2,0,1.6.4Z"/>
    <path d="M592.7,593.7c-.3.4-1.4.8-1.9.7-8-.6-17,.7-24.9,0s-2-.2-2.3-1.5-.4-3.8-.8-5.5c-2.8-11.3-12.6-20.7-24.1-22.8-4.1-.7-8.3-.4-12.4-.8-28-3-52.2-27.3-52.8-55.8,0-1.2-.9-2.2.6-3.1h27.7c1.2.6,1.1,4.4,1.3,5.6,1.9,8.3,7,15.6,14.3,20s21.1,3.4,32,6.4c24.1,6.7,42.3,29.1,43.7,54.2,0,.8.1,1.9-.4,2.6Z"/>
  </g>
  <g>
    <path d="M743.9,528.7c-12.5-3.2-23.3-6-23.9-12.1-.2-1.9.4-3.5,1.7-4.8,3.4-3.5,11.6-5.2,20.8-4.4,10.5.9,17.8,4.7,22,7.7,4.6,3.3,6.7,6.4,6.8,6.4l1.1,1.6,15.5-11.6-.9-1.4c-.5-.8-12.8-19.7-44.4-21.5-17.6-1.2-32.5,3-40.9,11.5-5.2,5.3-7.6,12-7,19.3,2,21.9,25.4,27.6,44.3,32.2,11.4,2.8,22.2,5.4,23.8,10.9h0c.8,2.7.2,5.3-1.5,7.4-2.1,2.5-7.8,6.6-22.5,5.2-11.2-1-18.5-4.7-22.6-7.6-4.5-3.2-6.3-6.1-6.4-6.1l-1-1.6-16.5,10.7.9,1.5c.5.9,13,20.9,46.2,22.9,1.8.1,3.6.2,5.3.2,15.4,0,28.2-4.3,35.8-12,5.6-5.7,8-12.8,7.4-21.2-1.7-22-25.2-28-44.1-32.9Z"/>
    <path d="M890.5,499.7c-10.5-9-23.8-12.8-37.4-10.6-13.9,2.2-21.7,10.4-26.9,15.9-2.7,2.8-5,5.2-6.7,5.3-.2,0-.3,0-.4-.2-1.5-1.9-.7-10.2.9-16.9l.5-2.2h-23.4l-.3,1.5c-.2,1.1-5,27.2,4.5,38.7,3,3.6,6.9,5.4,11.8,5.5,6.8.1,12-5.5,17.6-11.3,6-6.4,12.3-13.1,21.4-14.1,8.8-1.1,16.7,1.1,22.7,6.4,6.6,5.8,10.4,14.9,10.4,24.8,0,17.8-14.6,32.8-31.9,32.8s-24.6-8.3-29.4-20.2l-.5-1.1h-23.1v79h23.6v-49.5c8.9,7.5,18.9,11.6,30.7,12.3,13.9.9,27.4-4.1,37.8-13.9,10.9-10.3,17.2-24.6,17.2-39.4s-7.3-32.3-19.4-42.7Z"/>
    <path d="M974.7,488.4c-30.3,0-54.9,23.9-54.9,53.3s24.6,53.3,54.9,53.3,54.5-23.9,54.5-53.3-24.4-53.3-54.5-53.3ZM1005.8,541.7c0,18-13.9,32.6-31,32.6s-31.3-14.6-31.3-32.6,14-32.8,31.3-32.8,31,14.7,31,32.8Z"/>
    <path d="M1102.1,573.7c-1.6.4-3.3.4-5.6.4-4.7,0-8.4-.7-10.9-2.2-2.4-2-3.5-5.3-3.5-10v-48.1c3.2.9,9.7,3.4,16.3,9.6l3,2.8v-24.5l-.6-.5c-10-9.3-27.6-10.9-36.5-11.1,17.1-14.7,19.1-37.7,19.1-47.4v-1.8h-21.8s.1,2,.1,2c.1,1.3,2.1,33.1-30.7,47.5l-1.1.5v20.4s2.2-.5,2.2-.5c.1,0,13-3,26.4-1.3v52.7c0,11.1,3.9,19.6,11.5,25.3,6.6,4.9,15.7,7.6,26.3,7.6s5.9-.2,8.1-.5l6-.9v-21.3l-8.4,1.5h-.1Z"/>
    <rect x="1120.6" y="451" width="23.6" height="142"/>
    <rect x="1161.5" y="490.2" width="23.9" height="102.9"/>
    <path d="M1173,450.8c-8.1,0-14.4,6.2-14.4,14.2s6.5,14,14.4,14,14.4-6.3,14.4-14-6.3-14.2-14.4-14.2Z"/>
    <path d="M1232.2,517.1c6-5.3,13.8-7.5,22.7-6.4,9.1,1.1,15.4,7.8,21.4,14.2,5.5,5.9,10.7,11.4,17.6,11.4,4.9,0,8.9-2,11.8-5.6,9.5-11.7,4.7-37.7,4.5-38.8l-.3-1.5h-23.4s.5,2.2.5,2.2c1.6,6.8,2.4,15.2.9,17,0,.1-.1.1-.4.1-1.7,0-4-2.5-6.7-5.3-5.2-5.4-13-13.6-26.9-15.9-13.6-2.1-26.8,1.6-37.4,10.7-12.2,10.4-19.4,26.3-19.4,42.7s6.3,29.1,17.2,39.4c10.5,9.8,23.9,14.8,37.8,13.9,11.7-.8,21.8-4.8,30.7-12.2v8.1c0,7.5-2.5,13.6-7.5,18.3-8.1,7.6-20.1,9-25.2,8.7-20.4-1.3-30.9-16.4-31-16.5l-1.1-1.7-15.8,13.1.8,1.3c.5.9,13.5,22.2,46.9,24.5,1.1,0,2.7.2,4.6.2,9.1,0,26.1-1.7,38.6-13.3,8.9-8.3,13.4-19.9,13.4-34.6v-37.8h-23.1l-.5,1.1c-4.7,11.9-16.8,20.2-29.4,20.2s-31.9-15-31.9-32.8,3.8-19,10.4-24.8Z"/>
    <path d="M1397.2,488.4c-15.6-2.3-29.5,6.8-40,26.5-3.3,6.2-5.8,12.4-7.5,17.6v-81.4h-23.6v142h23.3l.3-1.4c4.7-22.8,20.8-80.8,39.4-80.8s.6,0,1,0c7.8.8,8.8,21.2,8.5,28.4v53.8h23.9v-55.4c0-30.6-8.2-46.7-25.2-49.3Z"/>
    <path d="M1498.8,573.7h-.1c-1.6.4-3.3.4-5.6.4-4.7,0-8.4-.7-10.9-2.2-2.4-2-3.5-5.3-3.5-10v-48.1c3.2.9,9.7,3.4,16.3,9.6l3,2.8v-24.5l-.6-.5c-10-9.3-27.6-10.9-36.5-11.1,17.1-14.7,19.1-37.7,19.1-47.4v-1.8h-21.8s.1,2,.1,2c.1,1.3,2.1,33.1-30.7,47.5l-1.1.5v20.4s2.2-.5,2.2-.5c.1,0,13-3,26.4-1.3v52.7c0,11.1,3.9,19.6,11.5,25.3,6.6,4.9,15.7,7.6,26.3,7.6s5.9-.2,8.1-.5l6-.9v-21.3l-8.4,1.5Z"/>
  </g>
</svg>