<?xml version="1.0" encoding="UTF-8"?>
<svg id="Layer_1" xmlns="http://www.w3.org/2000/svg" version="1.1" viewBox="0 0 1920 1080">
  <!-- Generator: Adobe Illustrator 29.5.1, SVG Export Plug-In . SVG Version: 2.1.0 Build 141)  -->
  <defs>
    <style>
      .st0 {
        font-family: Francy-Regular, Francy;
        font-size: 218.5px;
        letter-spacing: 0em;
      }
    </style>
  </defs>
  <path d="M1048.4,424.8c8.3,1.5,16.9,2.1,25.1,4.2,3.1.8,12.2,3.3,13.6,6.3,1.4,3.1-4.3,5.4-6.5,6.2-19.4,7.5-45.1,6.5-65.6,9.4l-34.6,1.2c-.1,1,1.3.5,2,.6,5.1.2,10.6.2,15.7.6,12.7,1,43.4,3.9,53.6,10.3,13.6,8.6-15,14.1-20.1,15.1-18.6,3.6-37.7,4.1-56.5,5.4l20.5,2.5c4.9,1.3,10.1,2,15,3.6,17.7,5.8,16.9,13.9-.2,19.5-13.5,4.4-29.2,5.6-43.3,5.8l9.9,2.6c20,6.5,20.1,20.9-.1,27.2s-31.3,3.1-42.3-4c-11.5-7.5-5.7-17.6,4.9-21.8l13.7-4c-12,0-24.9-1.1-36.5-3.9-4.5-1.1-10.7-2.9-14.6-5.1-18.7-10.5,15-19.2,22.6-19.9l20.5-2.5c-18.9-1.3-37.9-1.8-56.5-5.4-4.9-1-11.1-2.2-15.7-4-19.1-7.4.9-13.8,9.9-16,17.2-4.1,37.4-5.3,55.1-6,.7,0,2.2.4,2-.6l-34.6-1.2c-20.4-3-45.8-1.9-65.2-9.3s-6.7-2.5-7.2-5.6c0-3.3,10.6-6.3,13.3-7,8.4-2.2,17.1-2.9,25.6-4.3-11.4-28.2-8.7-60.8,7.3-86.6,25.1-40.4,76.6-56.2,120.2-36.6,46.7,21,68.5,75.5,49.2,123.2Z"/>
  <text class="st0" transform="translate(580.2 731.4)"><tspan x="0" y="0">spotlight</tspan></text>
</svg>