          <svg xmlns="http://www.w3.org/2000/svg" viewBox="534.3 450.3 853.07 208.9" className="h-auto w-full max-w-[120px] block rounded-xl bg-black/25 p-2 shadow-lg transition-transform duration-300 ease-[cubic-bezier(.4,2,.6,1)] hover:-rotate-2 hover:scale-105">
            <path fill="#fff" d="M596.7,548.9c-15.5-5.7-30.1-11.1-30.1-21.1s9.5-14,23.6-14,15.7,2.3,18.5,6.8c3.1,4.9,2.2,12.8-2.6,22.7l-.9,1.8,22,3.3.5-1.1c6-14.5,5.9-27.6-.3-36.9-6.6-10-19.6-15.2-37.6-15.2-27.9,0-45.2,12.7-45.2,33.2s26.8,33.8,46.4,41c11.2,4.1,21.8,8,21.8,12.8s-8.8,11.2-22.5,11.2-26-7.6-39-26.2l-.8-1.2-16.2,10,.7,1.3c13.3,23,31.6,34.6,54.4,34.6s46.1-14.1,46.1-31.4-20.6-24.9-38.7-31.6Z"/>
            <path fill="#fff" d="M713.9,495.3c-7.3,0-13.6,1.7-20,5.4l-1.2.7,7.1,15,1.4-.6c2.4-1.1,6.3-2.5,10.7-2.5,16,0,27.1,16.7,27.1,40.7s-15.4,40.5-29.7,40.5-15-3.1-19.5-8.2c13.4-34.4,15.2-64,4.7-79.5-4.7-6.9-11.6-10.5-20.2-10.5-17.9,0-29.9,17.1-29.9,42.6s7.1,36.9,20.6,51.1l-17.4,62.6,20.6,6.6,14.5-55.6c11.2,6.4,20.5,9.3,29.9,9.3s25.4-5.9,34.7-16.6c9.6-11.1,14.9-26.5,14.9-43.3,0-33-20.7-57.9-48.3-57.9ZM662.9,533.8c.2-5.6,1.3-18.6,8.8-18.6s4.1,1.2,5.6,3.6c6.4,10.7,2.2,40.4-4,52.9-5.4-2.3-10.8-21.6-10.4-37.9Z"/>
            <path fill="#fff" d="M830.3,495.3c-34.8,0-59.2,24-59.2,58.3s24.3,58.3,59.2,58.3,59.2-24,59.2-58.3-24.3-58.3-59.2-58.3ZM830.3,593.5c-21.2,0-36.1-16.4-36.1-39.8s14.8-39.8,36.1-39.8,36.1,16.4,36.1,39.8-14.8,39.8-36.1,39.8Z"/>
            <path fill="#fff" d="M970.9,565.8l-22,3.3.9,1.8c3.8,7.9,4.6,14.2,2.2,18-1.8,2.9-5.7,4.6-10.9,4.6-10.3,0-15.1-7-15.1-22.1v-55.5h35.6v-18.3h-35.6v-17.3h-22.7v17.3h-8.1v18.3h8.1v54.9c0,25.1,15.2,41.3,38.6,41.3s23.5-4.5,28.9-12.5c5.5-8.3,5.7-19.9,.5-32.6l-.4-1.1Z"/>
            <rect fill="#fff" x="983.1" y="453.8" width="22.7" height="156"/>
            <path fill="#fff" d="M1029.6,459.9c-8.9,0-14.8,6-14.8,14.8s6,14.8,14.8,14.8,14.8-6,14.8-14.8-6-14.8-14.8-14.8Z"/>
            <rect fill="#fff" x="1018" y="497.5" width="22.7" height="112.3"/>
            <path fill="#fff" d="M1140.2,505.2c-10.2-6.6-20.9-9.8-32.8-9.8-32.5,0-56.1,24.5-56.1,58.3s23.5,58.3,55.9,58.3,22.7-3.3,33-10v13.1c0,16.3-5.8,22.1-22.3,22.1s-13.9-1.7-16-5.1c-2.1-3.3-1.4-8.7,2.1-15.9l.9-1.8-22-3.3-.4,1.1c-5.5,13.2-5.7,23.7-.6,31.3,5.5,8.2,16.6,12.3,33.2,12.3,30.8,0,47.8-14.7,47.8-41.3v-116.9h-22.7v7.6ZM1110.4,593.5c-21.2,0-36.1-16.4-36.1-39.8s14.8-39.8,36.1-39.8,36.1,20.6,36.1,39.8-11.3,39.8-36.1,39.8Z"/>
            <path fill="#fff" d="M1250.3,495.3c-11.4,0-23.1,3.2-33.8,9.4-.8-2-1.9-5.4-3.5-10.2-3.1-9-7.7-22.6-15-42.8l-.5-1.4-20.3,7.4.5,1.4c7.7,20.8,12.8,35.5,16.2,45.2,2.4,6.9,4,11.4,5,14-10.5,11.1-22.7,28.7-22.7,51s13.8,42.6,32.1,42.6,15.5-3.6,20.2-10.5c10.5-15.4,8.8-44.9-4.6-79.2,8.1-5.5,16.6-8.5,24.6-8.5,19.2,0,28,14.6,28,28.2v67.7h23.1v-74.9c0-22.5-21.2-39.5-49.4-39.5ZM1212.9,586.9c-1.8,4.2-4.2,6.3-7.2,6.3-7.7,0-8.9-13.1-9-18.7-.4-15.9,4.9-34.2,10.2-35.9,8.1,9.2,11.5,35.3,6,48.2Z"/>
            <path fill="#fff" d="M1383.6,566.9l-.4-1.1-22,3.3.9,1.8c3.8,7.9,4.6,14.2,2.2,18-1.8,2.9-5.7,4.6-10.9,4.6-10.3,0-15.1-7-15.1-22.1v-55.5h35.6v-18.3h-35.6v-17.3h-22.7v17.3h-8.1v18.3h8.1v54.9c0,25.1,15.2,41.3,38.6,41.3s23.5-4.5,28.9-12.5c5.5-8.3,5.7-19.9,.5-32.6Z"/>
          </svg>